<?xml version="1.0" standalone="no"?>
<!DOCTYPE svg PUBLIC "-//W3C//DTD SVG 20010904//EN"
 "http://www.w3.org/TR/2001/REC-SVG-20010904/DTD/svg10.dtd">
<svg version="1.0" xmlns="http://www.w3.org/2000/svg"
 width="512.000000pt" height="512.000000pt" viewBox="0 0 512.000000 512.000000"
 preserveAspectRatio="xMidYMid meet">
<metadata>
Created by potrace 1.14, written by Peter Selinger 2001-2017
</metadata>
<g transform="translate(0.000000,512.000000) scale(0.100000,-0.100000)"
fill="#000000" stroke="none">
<path d="M800 5105 c-369 -74 -674 -362 -772 -725 l-23 -85 0 -1735 0 -1735
23 -85 c91 -339 373 -621 712 -712 l85 -23 1735 0 1735 0 85 23 c339 91 621
373 712 712 l23 85 0 1735 0 1735 -23 85 c-52 196 -183 396 -342 523 -96 77
-247 155 -365 189 l-80 23 -1720 2 c-1385 1 -1733 -1 -1785 -12z m570 -360
c102 -9 217 -20 255 -26 39 -5 338 -34 665 -65 1679 -155 2048 -191 2115 -205
103 -21 213 -99 279 -199 99 -149 99 -157 16 -970 -11 -113 -39 -398 -61 -635
-174 -1873 -179 -1923 -213 -2000 -39 -87 -100 -159 -175 -209 -130 -86 -181
-92 -519 -61 -147 13 -280 27 -297 30 -16 3 -298 31 -625 61 -1039 96 -1749
163 -1932 183 -162 18 -184 22 -250 54 -95 46 -174 124 -221 219 -56 111 -59
152 -31 452 13 142 26 273 29 290 3 17 31 299 61 626 204 2206 196 2139 259
2245 80 136 275 243 415 230 25 -3 128 -12 230 -20z"/>
<path d="M1034 4591 c-90 -30 -158 -94 -201 -187 -21 -46 -28 -102 -68 -550
-25 -275 -47 -512 -50 -529 -3 -16 -30 -299 -60 -627 -30 -329 -57 -608 -60
-620 -13 -58 -86 -939 -81 -983 9 -78 58 -167 115 -210 101 -74 101 -74 624
-121 263 -24 493 -46 510 -49 18 -3 298 -30 622 -60 325 -30 806 -75 1070
-101 293 -27 508 -43 551 -40 124 8 219 72 278 190 27 52 29 74 72 542 24 269
46 502 49 519 3 16 30 296 60 620 30 325 75 804 100 1065 25 262 44 506 42
545 -5 93 -36 162 -98 220 -97 91 -95 90 -656 140 -274 25 -509 47 -523 50
-14 3 -291 30 -615 60 -325 30 -804 75 -1065 100 -261 24 -495 44 -520 44 -25
0 -68 -8 -96 -18z m57 -200 c22 -18 24 -26 21 -98 -3 -99 -17 -148 -45 -168
-30 -21 -59 -19 -91 6 -22 18 -26 28 -25 72 1 94 14 165 34 186 23 27 75 27
106 2z m761 -392 c165 -35 283 -146 338 -319 27 -83 25 -162 -4 -255 -42 -131
-116 -220 -235 -279 -187 -94 -430 -38 -556 127 -78 101 -108 208 -95 326 33
279 279 457 552 400z m-799 -81 c20 -23 23 -97 7 -193 -5 -33 -32 -312 -59
-620 -71 -789 -73 -804 -116 -823 -37 -17 -50 -15 -81 11 -34 29 -34 14 10
487 89 948 107 1115 121 1137 25 37 86 38 118 1z m2609 -89 c124 -27 253 -131
308 -250 56 -122 54 -282 -7 -405 -131 -268 -516 -327 -728 -110 -156 161
-175 392 -48 584 52 77 172 160 266 182 49 12 150 11 209 -1z m-972 -831 c202
-60 343 -264 326 -469 -23 -274 -273 -469 -536 -419 -295 56 -460 379 -330
644 41 82 90 140 154 181 50 31 146 70 196 79 36 6 149 -4 190 -16z m-1015
-823 c93 -25 136 -48 200 -107 80 -75 122 -146 142 -244 47 -231 -85 -452
-316 -529 -66 -22 -197 -21 -265 1 -85 28 -180 96 -231 165 -65 89 -89 173
-83 299 4 83 10 107 37 166 52 112 140 191 256 232 100 35 171 40 260 17z
m1795 -165 c138 -26 265 -126 326 -255 31 -64 37 -89 42 -165 8 -142 -35 -255
-135 -354 -86 -87 -185 -126 -318 -126 -134 0 -225 37 -318 128 -81 78 -122
169 -133 292 -19 204 112 395 321 469 59 21 141 25 215 11z"/>
<path d="M1680 3851 c-134 -44 -230 -167 -230 -295 0 -113 78 -231 180 -275
76 -33 169 -32 243 2 155 71 221 243 154 399 -21 51 -98 125 -154 150 -51 22
-153 32 -193 19z"/>
<path d="M3503 3679 c-138 -26 -243 -153 -243 -294 0 -153 121 -286 275 -302
110 -11 224 50 285 153 33 55 35 64 35 149 0 80 -3 95 -27 135 -72 122 -198
183 -325 159z"/>
<path d="M2457 2841 c-75 -30 -132 -83 -168 -156 -29 -59 -31 -71 -27 -137 3
-40 12 -89 22 -109 26 -55 82 -116 134 -147 42 -24 56 -27 142 -27 85 0 100 3
141 27 51 30 109 90 135 140 25 48 30 153 10 219 -20 69 -82 141 -150 176 -69
35 -171 41 -239 14z"/>
<path d="M1500 2027 c-50 -14 -117 -54 -151 -89 -12 -13 -35 -51 -52 -86 -27
-57 -29 -71 -25 -137 4 -61 11 -84 39 -131 80 -133 242 -186 385 -124 100 43
174 157 174 269 0 88 -30 159 -91 216 -83 77 -186 108 -279 82z"/>
<path d="M3276 1840 c-63 -25 -138 -99 -167 -164 -31 -70 -31 -174 0 -234 89
-174 286 -235 436 -134 135 91 177 242 108 389 -62 132 -236 198 -377 143z"/>
</g>
</svg>
