<svg xmlns="http://www.w3.org/2000/svg"
style="transform: rotate(80.45deg);"
xmlns:xlink="http://www.w3.org/1999/xlink" version="1.1" x="0px" y="0px" viewBox="0 0 100 100" enable-background="new 0 0 100 100" xml:space="preserve"><g><path fill="#36D399" d="M14,54.9c-1.8,0-3.3-1.4-3.5-3.2L7.2,20.3c-0.1-0.9,0.2-1.9,0.8-2.6s1.4-1.2,2.4-1.3l31.4-3.3   c2-0.2,3.7,1.2,3.9,3.2l3.3,31.4c0.1,0.9-0.2,1.9-0.8,2.6s-1.4,1.2-2.4,1.3l-31.4,3.3C14.2,54.9,14.1,54.9,14,54.9z M42.1,15.1   c-0.1,0-0.1,0-0.2,0l-31.4,3.3c-0.4,0-0.8,0.2-1,0.6c-0.3,0.3-0.4,0.7-0.3,1.1l3.3,31.4c0.1,0.8,0.8,1.5,1.7,1.4l31.4-3.3   c0.4,0,0.8-0.2,1-0.6c0.3-0.3,0.4-0.7,0.3-1.1l-3.3-31.4C43.6,15.7,42.9,15.1,42.1,15.1z"/><circle fill="#36D399" cx="28.1" cy="34" r="2.9"/><circle fill="#36D399" cx="16.9" cy="25" r="2.9"/><circle fill="#36D399" cx="39.7" cy="43.5" r="2.9"/><path fill="#36D399" d="M83.9,87.4c-0.2,0-0.4,0-0.6-0.1L52.2,82c-1.9-0.3-3.2-2.2-2.9-4.1l5.3-31.1c0.3-1.9,2.1-3.2,4.1-2.9   l31.1,5.3c0.9,0.2,1.8,0.7,2.3,1.4c0.5,0.8,0.8,1.7,0.6,2.7l-5.3,31.1C87.1,86.1,85.6,87.4,83.9,87.4z M58.1,45.8   c-0.8,0-1.4,0.5-1.5,1.3l-5.3,31.1c-0.1,0.8,0.4,1.6,1.3,1.8l31.1,5.3c0.9,0.1,1.6-0.4,1.8-1.3l5.3-31.1c0.1-0.4,0-0.8-0.3-1.2   c-0.2-0.3-0.6-0.6-1-0.6l-31.1-5.3C58.2,45.8,58.1,45.8,58.1,45.8z"/><circle fill="#36D399" cx="71" cy="65.6" r="2.9"/><circle fill="#36D399" cx="62.7" cy="53.9" r="2.9"/><circle fill="#36D399" cx="59.2" cy="74.4" r="2.9"/><circle fill="#36D399" cx="83.2" cy="57.4" r="2.9"/><circle fill="#36D399" cx="79.7" cy="77.9" r="2.9"/></g></svg>